<mxfile host="app.diagrams.net" agent="Mozilla/5.0 (Windows NT 10.0; Win64; x64) AppleWebKit/537.36 (KHTML, like Gecko) Chrome/138.0.0.0 Safari/537.36" version="28.0.4">
  <diagram name="第 1 页" id="hSu8hpMaJ-RfTs3VSWTG">
    <mxGraphModel dx="2864" dy="1073" grid="1" gridSize="10" guides="1" tooltips="1" connect="1" arrows="1" fold="1" page="1" pageScale="1" pageWidth="827" pageHeight="1169" math="0" shadow="0">
      <root>
        <mxCell id="0" />
        <mxCell id="1" parent="0" />
        <mxCell id="bARAvIqzWJkf65PjSr2e-4" value="" style="edgeStyle=orthogonalEdgeStyle;rounded=0;sketch=1;hachureGap=4;jiggle=2;curveFitting=1;orthogonalLoop=1;jettySize=auto;html=1;fontFamily=Architects Daughter;fontSource=https%3A%2F%2Ffonts.googleapis.com%2Fcss%3Ffamily%3DArchitects%2BDaughter;" parent="1" source="bARAvIqzWJkf65PjSr2e-1" target="bARAvIqzWJkf65PjSr2e-3" edge="1">
          <mxGeometry relative="1" as="geometry" />
        </mxCell>
        <mxCell id="bARAvIqzWJkf65PjSr2e-1" value="&lt;font style=&quot;font-size: 14px;&quot; face=&quot;Comic Sans MS&quot;&gt;TabletServiceImpl::Scan&lt;/font&gt;" style="rounded=1;whiteSpace=wrap;html=1;sketch=1;hachureGap=4;jiggle=2;curveFitting=1;fontFamily=Architects Daughter;fontSource=https%3A%2F%2Ffonts.googleapis.com%2Fcss%3Ffamily%3DArchitects%2BDaughter;" parent="1" vertex="1">
          <mxGeometry x="310" y="210" width="200" height="60" as="geometry" />
        </mxCell>
        <mxCell id="bARAvIqzWJkf65PjSr2e-7" value="" style="edgeStyle=orthogonalEdgeStyle;rounded=0;sketch=1;hachureGap=4;jiggle=2;curveFitting=1;orthogonalLoop=1;jettySize=auto;html=1;fontFamily=Architects Daughter;fontSource=https%3A%2F%2Ffonts.googleapis.com%2Fcss%3Ffamily%3DArchitects%2BDaughter;" parent="1" source="bARAvIqzWJkf65PjSr2e-3" target="bARAvIqzWJkf65PjSr2e-6" edge="1">
          <mxGeometry relative="1" as="geometry" />
        </mxCell>
        <mxCell id="bARAvIqzWJkf65PjSr2e-10" value="&lt;font style=&quot;font-size: 13px;&quot; face=&quot;Comic Sans MS&quot;&gt;YES&lt;/font&gt;" style="edgeLabel;html=1;align=center;verticalAlign=middle;resizable=0;points=[];sketch=1;hachureGap=4;jiggle=2;curveFitting=1;fontFamily=Architects Daughter;fontSource=https%3A%2F%2Ffonts.googleapis.com%2Fcss%3Ffamily%3DArchitects%2BDaughter;" parent="bARAvIqzWJkf65PjSr2e-7" vertex="1" connectable="0">
          <mxGeometry x="-0.4431" y="2" relative="1" as="geometry">
            <mxPoint as="offset" />
          </mxGeometry>
        </mxCell>
        <mxCell id="bARAvIqzWJkf65PjSr2e-9" style="edgeStyle=orthogonalEdgeStyle;rounded=0;sketch=1;hachureGap=4;jiggle=2;curveFitting=1;orthogonalLoop=1;jettySize=auto;html=1;entryX=0.5;entryY=0;entryDx=0;entryDy=0;fontFamily=Architects Daughter;fontSource=https%3A%2F%2Ffonts.googleapis.com%2Fcss%3Ffamily%3DArchitects%2BDaughter;" parent="1" source="bARAvIqzWJkf65PjSr2e-3" target="bARAvIqzWJkf65PjSr2e-8" edge="1">
          <mxGeometry relative="1" as="geometry" />
        </mxCell>
        <mxCell id="bARAvIqzWJkf65PjSr2e-11" value="&lt;font face=&quot;Comic Sans MS&quot; style=&quot;font-size: 13px;&quot;&gt;NO&lt;/font&gt;" style="edgeLabel;html=1;align=center;verticalAlign=middle;resizable=0;points=[];sketch=1;hachureGap=4;jiggle=2;curveFitting=1;fontFamily=Architects Daughter;fontSource=https%3A%2F%2Ffonts.googleapis.com%2Fcss%3Ffamily%3DArchitects%2BDaughter;" parent="bARAvIqzWJkf65PjSr2e-9" vertex="1" connectable="0">
          <mxGeometry x="-0.3214" relative="1" as="geometry">
            <mxPoint as="offset" />
          </mxGeometry>
        </mxCell>
        <mxCell id="bARAvIqzWJkf65PjSr2e-3" value="&lt;font style=&quot;font-size: 14px;&quot; face=&quot;Comic Sans MS&quot;&gt;Is New Request?&lt;/font&gt;" style="rhombus;whiteSpace=wrap;html=1;fontFamily=Architects Daughter;rounded=1;sketch=1;hachureGap=4;jiggle=2;curveFitting=1;fontSource=https%3A%2F%2Ffonts.googleapis.com%2Fcss%3Ffamily%3DArchitects%2BDaughter;" parent="1" vertex="1">
          <mxGeometry x="355" y="310" width="110" height="110" as="geometry" />
        </mxCell>
        <mxCell id="bARAvIqzWJkf65PjSr2e-26" style="edgeStyle=orthogonalEdgeStyle;rounded=0;sketch=1;hachureGap=4;jiggle=2;curveFitting=1;orthogonalLoop=1;jettySize=auto;html=1;fontFamily=Architects Daughter;fontSource=https%3A%2F%2Ffonts.googleapis.com%2Fcss%3Ffamily%3DArchitects%2BDaughter;" parent="1" source="bARAvIqzWJkf65PjSr2e-6" target="bARAvIqzWJkf65PjSr2e-25" edge="1">
          <mxGeometry relative="1" as="geometry" />
        </mxCell>
        <mxCell id="bARAvIqzWJkf65PjSr2e-6" value="&lt;font style=&quot;font-size: 14px;&quot; face=&quot;Comic Sans MS&quot;&gt;HandleNewScanRequest&lt;/font&gt;" style="whiteSpace=wrap;html=1;fontFamily=Architects Daughter;rounded=1;sketch=1;hachureGap=4;jiggle=2;curveFitting=1;fontSource=https%3A%2F%2Ffonts.googleapis.com%2Fcss%3Ffamily%3DArchitects%2BDaughter;" parent="1" vertex="1">
          <mxGeometry x="170" y="640" width="170" height="70" as="geometry" />
        </mxCell>
        <mxCell id="bARAvIqzWJkf65PjSr2e-18" value="" style="rounded=1;whiteSpace=wrap;html=1;sketch=1;hachureGap=4;jiggle=2;curveFitting=1;fontFamily=Architects Daughter;fontSource=https%3A%2F%2Ffonts.googleapis.com%2Fcss%3Ffamily%3DArchitects%2BDaughter;" parent="1" vertex="1">
          <mxGeometry x="-130" y="210" width="190" height="550" as="geometry" />
        </mxCell>
        <mxCell id="bARAvIqzWJkf65PjSr2e-8" value="&lt;font face=&quot;Comic Sans MS&quot;&gt;&lt;span style=&quot;font-size: 14px;&quot;&gt;HandleContinueScanRequest&lt;/span&gt;&lt;/font&gt;" style="whiteSpace=wrap;html=1;fontFamily=Architects Daughter;rounded=1;sketch=1;hachureGap=4;jiggle=2;curveFitting=1;fontSource=https%3A%2F%2Ffonts.googleapis.com%2Fcss%3Ffamily%3DArchitects%2BDaughter;" parent="1" vertex="1">
          <mxGeometry x="490" y="465" width="200" height="70" as="geometry" />
        </mxCell>
        <mxCell id="bARAvIqzWJkf65PjSr2e-12" value="&lt;font style=&quot;font-size: 14px;&quot; face=&quot;Comic Sans MS&quot;&gt;SetupScanSpec&lt;/font&gt;" style="whiteSpace=wrap;html=1;fontFamily=Architects Daughter;rounded=1;sketch=1;hachureGap=4;jiggle=2;curveFitting=1;fontSource=https%3A%2F%2Ffonts.googleapis.com%2Fcss%3Ffamily%3DArchitects%2BDaughter;" parent="1" vertex="1">
          <mxGeometry x="-97.5" y="250" width="120" height="60" as="geometry" />
        </mxCell>
        <mxCell id="bARAvIqzWJkf65PjSr2e-14" value="&lt;font face=&quot;Comic Sans MS&quot;&gt;设置列谓词以及range&amp;nbsp;谓词等&lt;/font&gt;" style="shape=note;size=20;whiteSpace=wrap;html=1;sketch=1;hachureGap=4;jiggle=2;curveFitting=1;fontFamily=Architects Daughter;fontSource=https%3A%2F%2Ffonts.googleapis.com%2Fcss%3Ffamily%3DArchitects%2BDaughter;" parent="1" vertex="1">
          <mxGeometry x="-300" y="230" width="100" height="100" as="geometry" />
        </mxCell>
        <mxCell id="bARAvIqzWJkf65PjSr2e-15" style="rounded=0;sketch=1;hachureGap=4;jiggle=2;curveFitting=1;orthogonalLoop=1;jettySize=auto;html=1;entryX=0.97;entryY=0.5;entryDx=0;entryDy=0;entryPerimeter=0;fontFamily=Architects Daughter;fontSource=https%3A%2F%2Ffonts.googleapis.com%2Fcss%3Ffamily%3DArchitects%2BDaughter;dashed=1;exitX=0;exitY=0.5;exitDx=0;exitDy=0;" parent="1" source="bARAvIqzWJkf65PjSr2e-12" target="bARAvIqzWJkf65PjSr2e-14" edge="1">
          <mxGeometry relative="1" as="geometry" />
        </mxCell>
        <mxCell id="bARAvIqzWJkf65PjSr2e-19" style="rounded=0;sketch=1;hachureGap=4;jiggle=2;curveFitting=1;orthogonalLoop=1;jettySize=auto;html=1;exitX=0;exitY=0.5;exitDx=0;exitDy=0;entryX=0.977;entryY=0.47;entryDx=0;entryDy=0;entryPerimeter=0;fontFamily=Architects Daughter;fontSource=https%3A%2F%2Ffonts.googleapis.com%2Fcss%3Ffamily%3DArchitects%2BDaughter;" parent="1" source="bARAvIqzWJkf65PjSr2e-6" target="bARAvIqzWJkf65PjSr2e-18" edge="1">
          <mxGeometry relative="1" as="geometry" />
        </mxCell>
        <mxCell id="bARAvIqzWJkf65PjSr2e-20" value="&lt;font style=&quot;font-size: 13px;&quot; face=&quot;Comic Sans MS&quot;&gt;PruneInlistValuesIfPossible&lt;/font&gt;" style="whiteSpace=wrap;html=1;fontFamily=Architects Daughter;rounded=1;sketch=1;hachureGap=4;jiggle=2;curveFitting=1;fontSource=https%3A%2F%2Ffonts.googleapis.com%2Fcss%3Ffamily%3DArchitects%2BDaughter;" parent="1" vertex="1">
          <mxGeometry x="-122.5" y="320" width="175" height="60" as="geometry" />
        </mxCell>
        <mxCell id="bARAvIqzWJkf65PjSr2e-23" value="&lt;font face=&quot;Comic Sans MS&quot;&gt;&lt;span style=&quot;font-size: 14px;&quot;&gt;OptimizeScan&lt;/span&gt;&lt;/font&gt;" style="whiteSpace=wrap;html=1;fontFamily=Architects Daughter;rounded=1;sketch=1;hachureGap=4;jiggle=2;curveFitting=1;fontSource=https%3A%2F%2Ffonts.googleapis.com%2Fcss%3Ffamily%3DArchitects%2BDaughter;" parent="1" vertex="1">
          <mxGeometry x="-95" y="400" width="120" height="60" as="geometry" />
        </mxCell>
        <mxCell id="bARAvIqzWJkf65PjSr2e-25" value="&lt;font face=&quot;Comic Sans MS&quot;&gt;&lt;span style=&quot;font-size: 14px;&quot;&gt;HandleContinueScanRequest&lt;/span&gt;&lt;/font&gt;" style="whiteSpace=wrap;html=1;fontFamily=Architects Daughter;rounded=1;sketch=1;hachureGap=4;jiggle=2;curveFitting=1;fontSource=https%3A%2F%2Ffonts.googleapis.com%2Fcss%3Ffamily%3DArchitects%2BDaughter;" parent="1" vertex="1">
          <mxGeometry x="155" y="880" width="200" height="60" as="geometry" />
        </mxCell>
      </root>
    </mxGraphModel>
  </diagram>
</mxfile>
